<?xml version="1.0" encoding="utf-8" standalone="no"?>
<!DOCTYPE svg PUBLIC "-//W3C//DTD SVG 1.1//EN"
  "http://www.w3.org/Graphics/SVG/1.1/DTD/svg11.dtd">
<svg xmlns:xlink="http://www.w3.org/1999/xlink" width="1000.370625pt" height="355.59625pt" viewBox="0 0 1000.370625 355.59625" xmlns="http://www.w3.org/2000/svg" version="1.1">
 <metadata>
  <rdf:RDF xmlns:dc="http://purl.org/dc/elements/1.1/" xmlns:cc="http://creativecommons.org/ns#" xmlns:rdf="http://www.w3.org/1999/02/22-rdf-syntax-ns#">
   <cc:Work>
    <dc:type rdf:resource="http://purl.org/dc/dcmitype/StillImage"/>
    <dc:date>2026-03-05T20:41:16.134211</dc:date>
    <dc:format>image/svg+xml</dc:format>
    <dc:creator>
     <cc:Agent>
      <dc:title>Matplotlib v3.10.8, https://matplotlib.org/</dc:title>
     </cc:Agent>
    </dc:creator>
   </cc:Work>
  </rdf:RDF>
 </metadata>
 <defs>
  <style type="text/css">*{stroke-linejoin: round; stroke-linecap: butt}</style>
 </defs>
 <g id="figure_1">
  <g id="patch_1">
   <path d="M 0 355.59625 
L 1000.370625 355.59625 
L 1000.370625 0 
L 0 0 
z
" style="fill: #ffffff"/>
  </g>
  <g id="axes_1">
   <g id="patch_2">
    <path d="M 34.240625 318.04 
L 494.570625 318.04 
L 494.570625 51.36 
L 34.240625 51.36 
z
" style="fill: #ffffff"/>
   </g>
   <g id="matplotlib.axis_1">
    <g id="xtick_1">
     <g id="line2d_1">
      <path d="M 50.937627 318.04 
L 50.937627 51.36 
" clip-path="url(#p501b0f05ce)" style="fill: none; stroke: #b0b0b0; stroke-opacity: 0.3; stroke-width: 0.8; stroke-linecap: square"/>
     </g>
     <g id="line2d_2">
      <defs>
       <path id="md3452a0876" d="M 0 0 
L 0 3.5 
" style="stroke: #000000; stroke-width: 0.8"/>
      </defs>
      <g>
       <use xlink:href="#md3452a0876" x="50.937627" y="318.04" style="stroke: #000000; stroke-width: 0.8"/>
      </g>
     </g>
     <g id="text_1">
      <!-- 0 -->
      <g transform="translate(47.756377 332.638437) scale(0.1 -0.1)">
       <defs>
        <path id="DejaVuSans-30" d="M 2034 4250 
Q 1547 4250 1301 3770 
Q 1056 3291 1056 2328 
Q 1056 1369 1301 889 
Q 1547 409 2034 409 
Q 2525 409 2770 889 
Q 3016 1369 3016 2328 
Q 3016 3291 2770 3770 
Q 2525 4250 2034 4250 
z
M 2034 4750 
Q 2819 4750 3233 4129 
Q 3647 3509 3647 2328 
Q 3647 1150 3233 529 
Q 2819 -91 2034 -91 
Q 1250 -91 836 529 
Q 422 1150 422 2328 
Q 422 3509 836 4129 
Q 1250 4750 2034 4750 
z
" transform="scale(0.015625)"/>
       </defs>
       <use xlink:href="#DejaVuSans-30"/>
      </g>
     </g>
    </g>
    <g id="xtick_2">
     <g id="line2d_3">
      <path d="M 135.479408 318.04 
L 135.479408 51.36 
" clip-path="url(#p501b0f05ce)" style="fill: none; stroke: #b0b0b0; stroke-opacity: 0.3; stroke-width: 0.8; stroke-linecap: square"/>
     </g>
     <g id="line2d_4">
      <g>
       <use xlink:href="#md3452a0876" x="135.479408" y="318.04" style="stroke: #000000; stroke-width: 0.8"/>
      </g>
     </g>
     <g id="text_2">
      <!-- 20 -->
      <g transform="translate(129.116908 332.638437) scale(0.1 -0.1)">
       <defs>
        <path id="DejaVuSans-32" d="M 1228 531 
L 3431 531 
L 3431 0 
L 469 0 
L 469 531 
Q 828 903 1448 1529 
Q 2069 2156 2228 2338 
Q 2531 2678 2651 2914 
Q 2772 3150 2772 3378 
Q 2772 3750 2511 3984 
Q 2250 4219 1831 4219 
Q 1534 4219 1204 4116 
Q 875 4013 500 3803 
L 500 4441 
Q 881 4594 1212 4672 
Q 1544 4750 1819 4750 
Q 2544 4750 2975 4387 
Q 3406 4025 3406 3419 
Q 3406 3131 3298 2873 
Q 3191 2616 2906 2266 
Q 2828 2175 2409 1742 
Q 1991 1309 1228 531 
z
" transform="scale(0.015625)"/>
       </defs>
       <use xlink:href="#DejaVuSans-32"/>
       <use xlink:href="#DejaVuSans-30" transform="translate(63.623047 0)"/>
      </g>
     </g>
    </g>
    <g id="xtick_3">
     <g id="line2d_5">
      <path d="M 220.02119 318.04 
L 220.02119 51.36 
" clip-path="url(#p501b0f05ce)" style="fill: none; stroke: #b0b0b0; stroke-opacity: 0.3; stroke-width: 0.8; stroke-linecap: square"/>
     </g>
     <g id="line2d_6">
      <g>
       <use xlink:href="#md3452a0876" x="220.02119" y="318.04" style="stroke: #000000; stroke-width: 0.8"/>
      </g>
     </g>
     <g id="text_3">
      <!-- 40 -->
      <g transform="translate(213.65869 332.638437) scale(0.1 -0.1)">
       <defs>
        <path id="DejaVuSans-34" d="M 2419 4116 
L 825 1625 
L 2419 1625 
L 2419 4116 
z
M 2253 4666 
L 3047 4666 
L 3047 1625 
L 3713 1625 
L 3713 1100 
L 3047 1100 
L 3047 0 
L 2419 0 
L 2419 1100 
L 313 1100 
L 313 1709 
L 2253 4666 
z
" transform="scale(0.015625)"/>
       </defs>
       <use xlink:href="#DejaVuSans-34"/>
       <use xlink:href="#DejaVuSans-30" transform="translate(63.623047 0)"/>
      </g>
     </g>
    </g>
    <g id="xtick_4">
     <g id="line2d_7">
      <path d="M 304.562971 318.04 
L 304.562971 51.36 
" clip-path="url(#p501b0f05ce)" style="fill: none; stroke: #b0b0b0; stroke-opacity: 0.3; stroke-width: 0.8; stroke-linecap: square"/>
     </g>
     <g id="line2d_8">
      <g>
       <use xlink:href="#md3452a0876" x="304.562971" y="318.04" style="stroke: #000000; stroke-width: 0.8"/>
      </g>
     </g>
     <g id="text_4">
      <!-- 60 -->
      <g transform="translate(298.200471 332.638437) scale(0.1 -0.1)">
       <defs>
        <path id="DejaVuSans-36" d="M 2113 2584 
Q 1688 2584 1439 2293 
Q 1191 2003 1191 1497 
Q 1191 994 1439 701 
Q 1688 409 2113 409 
Q 2538 409 2786 701 
Q 3034 994 3034 1497 
Q 3034 2003 2786 2293 
Q 2538 2584 2113 2584 
z
M 3366 4563 
L 3366 3988 
Q 3128 4100 2886 4159 
Q 2644 4219 2406 4219 
Q 1781 4219 1451 3797 
Q 1122 3375 1075 2522 
Q 1259 2794 1537 2939 
Q 1816 3084 2150 3084 
Q 2853 3084 3261 2657 
Q 3669 2231 3669 1497 
Q 3669 778 3244 343 
Q 2819 -91 2113 -91 
Q 1303 -91 875 529 
Q 447 1150 447 2328 
Q 447 3434 972 4092 
Q 1497 4750 2381 4750 
Q 2619 4750 2861 4703 
Q 3103 4656 3366 4563 
z
" transform="scale(0.015625)"/>
       </defs>
       <use xlink:href="#DejaVuSans-36"/>
       <use xlink:href="#DejaVuSans-30" transform="translate(63.623047 0)"/>
      </g>
     </g>
    </g>
    <g id="xtick_5">
     <g id="line2d_9">
      <path d="M 389.104753 318.04 
L 389.104753 51.36 
" clip-path="url(#p501b0f05ce)" style="fill: none; stroke: #b0b0b0; stroke-opacity: 0.3; stroke-width: 0.8; stroke-linecap: square"/>
     </g>
     <g id="line2d_10">
      <g>
       <use xlink:href="#md3452a0876" x="389.104753" y="318.04" style="stroke: #000000; stroke-width: 0.8"/>
      </g>
     </g>
     <g id="text_5">
      <!-- 80 -->
      <g transform="translate(382.742253 332.638437) scale(0.1 -0.1)">
       <defs>
        <path id="DejaVuSans-38" d="M 2034 2216 
Q 1584 2216 1326 1975 
Q 1069 1734 1069 1313 
Q 1069 891 1326 650 
Q 1584 409 2034 409 
Q 2484 409 2743 651 
Q 3003 894 3003 1313 
Q 3003 1734 2745 1975 
Q 2488 2216 2034 2216 
z
M 1403 2484 
Q 997 2584 770 2862 
Q 544 3141 544 3541 
Q 544 4100 942 4425 
Q 1341 4750 2034 4750 
Q 2731 4750 3128 4425 
Q 3525 4100 3525 3541 
Q 3525 3141 3298 2862 
Q 3072 2584 2669 2484 
Q 3125 2378 3379 2068 
Q 3634 1759 3634 1313 
Q 3634 634 3220 271 
Q 2806 -91 2034 -91 
Q 1263 -91 848 271 
Q 434 634 434 1313 
Q 434 1759 690 2068 
Q 947 2378 1403 2484 
z
M 1172 3481 
Q 1172 3119 1398 2916 
Q 1625 2713 2034 2713 
Q 2441 2713 2670 2916 
Q 2900 3119 2900 3481 
Q 2900 3844 2670 4047 
Q 2441 4250 2034 4250 
Q 1625 4250 1398 4047 
Q 1172 3844 1172 3481 
z
" transform="scale(0.015625)"/>
       </defs>
       <use xlink:href="#DejaVuSans-38"/>
       <use xlink:href="#DejaVuSans-30" transform="translate(63.623047 0)"/>
      </g>
     </g>
    </g>
    <g id="xtick_6">
     <g id="line2d_11">
      <path d="M 473.646534 318.04 
L 473.646534 51.36 
" clip-path="url(#p501b0f05ce)" style="fill: none; stroke: #b0b0b0; stroke-opacity: 0.3; stroke-width: 0.8; stroke-linecap: square"/>
     </g>
     <g id="line2d_12">
      <g>
       <use xlink:href="#md3452a0876" x="473.646534" y="318.04" style="stroke: #000000; stroke-width: 0.8"/>
      </g>
     </g>
     <g id="text_6">
      <!-- 100 -->
      <g transform="translate(464.102784 332.638437) scale(0.1 -0.1)">
       <defs>
        <path id="DejaVuSans-31" d="M 794 531 
L 1825 531 
L 1825 4091 
L 703 3866 
L 703 4441 
L 1819 4666 
L 2450 4666 
L 2450 531 
L 3481 531 
L 3481 0 
L 794 0 
L 794 531 
z
" transform="scale(0.015625)"/>
       </defs>
       <use xlink:href="#DejaVuSans-31"/>
       <use xlink:href="#DejaVuSans-30" transform="translate(63.623047 0)"/>
       <use xlink:href="#DejaVuSans-30" transform="translate(127.246094 0)"/>
      </g>
     </g>
    </g>
    <g id="text_7">
     <!-- Iteration -->
     <g transform="translate(243.197031 346.316562) scale(0.1 -0.1)">
      <defs>
       <path id="DejaVuSans-49" d="M 628 4666 
L 1259 4666 
L 1259 0 
L 628 0 
L 628 4666 
z
" transform="scale(0.015625)"/>
       <path id="DejaVuSans-74" d="M 1172 4494 
L 1172 3500 
L 2356 3500 
L 2356 3053 
L 1172 3053 
L 1172 1153 
Q 1172 725 1289 603 
Q 1406 481 1766 481 
L 2356 481 
L 2356 0 
L 1766 0 
Q 1100 0 847 248 
Q 594 497 594 1153 
L 594 3053 
L 172 3053 
L 172 3500 
L 594 3500 
L 594 4494 
L 1172 4494 
z
" transform="scale(0.015625)"/>
       <path id="DejaVuSans-65" d="M 3597 1894 
L 3597 1613 
L 953 1613 
Q 991 1019 1311 708 
Q 1631 397 2203 397 
Q 2534 397 2845 478 
Q 3156 559 3463 722 
L 3463 178 
Q 3153 47 2828 -22 
Q 2503 -91 2169 -91 
Q 1331 -91 842 396 
Q 353 884 353 1716 
Q 353 2575 817 3079 
Q 1281 3584 2069 3584 
Q 2775 3584 3186 3129 
Q 3597 2675 3597 1894 
z
M 3022 2063 
Q 3016 2534 2758 2815 
Q 2500 3097 2075 3097 
Q 1594 3097 1305 2825 
Q 1016 2553 972 2059 
L 3022 2063 
z
" transform="scale(0.015625)"/>
       <path id="DejaVuSans-72" d="M 2631 2963 
Q 2534 3019 2420 3045 
Q 2306 3072 2169 3072 
Q 1681 3072 1420 2755 
Q 1159 2438 1159 1844 
L 1159 0 
L 581 0 
L 581 3500 
L 1159 3500 
L 1159 2956 
Q 1341 3275 1631 3429 
Q 1922 3584 2338 3584 
Q 2397 3584 2469 3576 
Q 2541 3569 2628 3553 
L 2631 2963 
z
" transform="scale(0.015625)"/>
       <path id="DejaVuSans-61" d="M 2194 1759 
Q 1497 1759 1228 1600 
Q 959 1441 959 1056 
Q 959 750 1161 570 
Q 1363 391 1709 391 
Q 2188 391 2477 730 
Q 2766 1069 2766 1631 
L 2766 1759 
L 2194 1759 
z
M 3341 1997 
L 3341 0 
L 2766 0 
L 2766 531 
Q 2569 213 2275 61 
Q 1981 -91 1556 -91 
Q 1019 -91 701 211 
Q 384 513 384 1019 
Q 384 1609 779 1909 
Q 1175 2209 1959 2209 
L 2766 2209 
L 2766 2266 
Q 2766 2663 2505 2880 
Q 2244 3097 1772 3097 
Q 1472 3097 1187 3025 
Q 903 2953 641 2809 
L 641 3341 
Q 956 3463 1253 3523 
Q 1550 3584 1831 3584 
Q 2591 3584 2966 3190 
Q 3341 2797 3341 1997 
z
" transform="scale(0.015625)"/>
       <path id="DejaVuSans-69" d="M 603 3500 
L 1178 3500 
L 1178 0 
L 603 0 
L 603 3500 
z
M 603 4863 
L 1178 4863 
L 1178 4134 
L 603 4134 
L 603 4863 
z
" transform="scale(0.015625)"/>
       <path id="DejaVuSans-6f" d="M 1959 3097 
Q 1497 3097 1228 2736 
Q 959 2375 959 1747 
Q 959 1119 1226 758 
Q 1494 397 1959 397 
Q 2419 397 2687 759 
Q 2956 1122 2956 1747 
Q 2956 2369 2687 2733 
Q 2419 3097 1959 3097 
z
M 1959 3584 
Q 2709 3584 3137 3096 
Q 3566 2609 3566 1747 
Q 3566 888 3137 398 
Q 2709 -91 1959 -91 
Q 1206 -91 779 398 
Q 353 888 353 1747 
Q 353 2609 779 3096 
Q 1206 3584 1959 3584 
z
" transform="scale(0.015625)"/>
       <path id="DejaVuSans-6e" d="M 3513 2113 
L 3513 0 
L 2938 0 
L 2938 2094 
Q 2938 2591 2744 2837 
Q 2550 3084 2163 3084 
Q 1697 3084 1428 2787 
Q 1159 2491 1159 1978 
L 1159 0 
L 581 0 
L 581 3500 
L 1159 3500 
L 1159 2956 
Q 1366 3272 1645 3428 
Q 1925 3584 2291 3584 
Q 2894 3584 3203 3211 
Q 3513 2838 3513 2113 
z
" transform="scale(0.015625)"/>
      </defs>
      <use xlink:href="#DejaVuSans-49"/>
      <use xlink:href="#DejaVuSans-74" transform="translate(29.492188 0)"/>
      <use xlink:href="#DejaVuSans-65" transform="translate(68.701172 0)"/>
      <use xlink:href="#DejaVuSans-72" transform="translate(130.224609 0)"/>
      <use xlink:href="#DejaVuSans-61" transform="translate(171.337891 0)"/>
      <use xlink:href="#DejaVuSans-74" transform="translate(232.617188 0)"/>
      <use xlink:href="#DejaVuSans-69" transform="translate(271.826172 0)"/>
      <use xlink:href="#DejaVuSans-6f" transform="translate(299.609375 0)"/>
      <use xlink:href="#DejaVuSans-6e" transform="translate(360.791016 0)"/>
     </g>
    </g>
   </g>
   <g id="matplotlib.axis_2">
    <g id="ytick_1">
     <g id="line2d_13">
      <path d="M 34.240625 305.918182 
L 494.570625 305.918182 
" clip-path="url(#p501b0f05ce)" style="fill: none; stroke: #b0b0b0; stroke-opacity: 0.3; stroke-width: 0.8; stroke-linecap: square"/>
     </g>
     <g id="line2d_14">
      <defs>
       <path id="mc3fea39ddb" d="M 0 0 
L -3.5 0 
" style="stroke: #000000; stroke-width: 0.8"/>
      </defs>
      <g>
       <use xlink:href="#mc3fea39ddb" x="34.240625" y="305.918182" style="stroke: #000000; stroke-width: 0.8"/>
      </g>
     </g>
     <g id="text_8">
      <!-- 0 -->
      <g transform="translate(20.878125 309.717401) scale(0.1 -0.1)">
       <use xlink:href="#DejaVuSans-30"/>
      </g>
     </g>
    </g>
    <g id="ytick_2">
     <g id="line2d_15">
      <path d="M 34.240625 273.874729 
L 494.570625 273.874729 
" clip-path="url(#p501b0f05ce)" style="fill: none; stroke: #b0b0b0; stroke-opacity: 0.3; stroke-width: 0.8; stroke-linecap: square"/>
     </g>
     <g id="line2d_16">
      <g>
       <use xlink:href="#mc3fea39ddb" x="34.240625" y="273.874729" style="stroke: #000000; stroke-width: 0.8"/>
      </g>
     </g>
     <g id="text_9">
      <!-- 1 -->
      <g transform="translate(20.878125 277.673947) scale(0.1 -0.1)">
       <use xlink:href="#DejaVuSans-31"/>
      </g>
     </g>
    </g>
    <g id="ytick_3">
     <g id="line2d_17">
      <path d="M 34.240625 241.831275 
L 494.570625 241.831275 
" clip-path="url(#p501b0f05ce)" style="fill: none; stroke: #b0b0b0; stroke-opacity: 0.3; stroke-width: 0.8; stroke-linecap: square"/>
     </g>
     <g id="line2d_18">
      <g>
       <use xlink:href="#mc3fea39ddb" x="34.240625" y="241.831275" style="stroke: #000000; stroke-width: 0.8"/>
      </g>
     </g>
     <g id="text_10">
      <!-- 2 -->
      <g transform="translate(20.878125 245.630494) scale(0.1 -0.1)">
       <use xlink:href="#DejaVuSans-32"/>
      </g>
     </g>
    </g>
    <g id="ytick_4">
     <g id="line2d_19">
      <path d="M 34.240625 209.787822 
L 494.570625 209.787822 
" clip-path="url(#p501b0f05ce)" style="fill: none; stroke: #b0b0b0; stroke-opacity: 0.3; stroke-width: 0.8; stroke-linecap: square"/>
     </g>
     <g id="line2d_20">
      <g>
       <use xlink:href="#mc3fea39ddb" x="34.240625" y="209.787822" style="stroke: #000000; stroke-width: 0.8"/>
      </g>
     </g>
     <g id="text_11">
      <!-- 3 -->
      <g transform="translate(20.878125 213.587041) scale(0.1 -0.1)">
       <defs>
        <path id="DejaVuSans-33" d="M 2597 2516 
Q 3050 2419 3304 2112 
Q 3559 1806 3559 1356 
Q 3559 666 3084 287 
Q 2609 -91 1734 -91 
Q 1441 -91 1130 -33 
Q 819 25 488 141 
L 488 750 
Q 750 597 1062 519 
Q 1375 441 1716 441 
Q 2309 441 2620 675 
Q 2931 909 2931 1356 
Q 2931 1769 2642 2001 
Q 2353 2234 1838 2234 
L 1294 2234 
L 1294 2753 
L 1863 2753 
Q 2328 2753 2575 2939 
Q 2822 3125 2822 3475 
Q 2822 3834 2567 4026 
Q 2313 4219 1838 4219 
Q 1578 4219 1281 4162 
Q 984 4106 628 3988 
L 628 4550 
Q 988 4650 1302 4700 
Q 1616 4750 1894 4750 
Q 2613 4750 3031 4423 
Q 3450 4097 3450 3541 
Q 3450 3153 3228 2886 
Q 3006 2619 2597 2516 
z
" transform="scale(0.015625)"/>
       </defs>
       <use xlink:href="#DejaVuSans-33"/>
      </g>
     </g>
    </g>
    <g id="ytick_5">
     <g id="line2d_21">
      <path d="M 34.240625 177.744369 
L 494.570625 177.744369 
" clip-path="url(#p501b0f05ce)" style="fill: none; stroke: #b0b0b0; stroke-opacity: 0.3; stroke-width: 0.8; stroke-linecap: square"/>
     </g>
     <g id="line2d_22">
      <g>
       <use xlink:href="#mc3fea39ddb" x="34.240625" y="177.744369" style="stroke: #000000; stroke-width: 0.8"/>
      </g>
     </g>
     <g id="text_12">
      <!-- 4 -->
      <g transform="translate(20.878125 181.543587) scale(0.1 -0.1)">
       <use xlink:href="#DejaVuSans-34"/>
      </g>
     </g>
    </g>
    <g id="ytick_6">
     <g id="line2d_23">
      <path d="M 34.240625 145.700915 
L 494.570625 145.700915 
" clip-path="url(#p501b0f05ce)" style="fill: none; stroke: #b0b0b0; stroke-opacity: 0.3; stroke-width: 0.8; stroke-linecap: square"/>
     </g>
     <g id="line2d_24">
      <g>
       <use xlink:href="#mc3fea39ddb" x="34.240625" y="145.700915" style="stroke: #000000; stroke-width: 0.8"/>
      </g>
     </g>
     <g id="text_13">
      <!-- 5 -->
      <g transform="translate(20.878125 149.500134) scale(0.1 -0.1)">
       <defs>
        <path id="DejaVuSans-35" d="M 691 4666 
L 3169 4666 
L 3169 4134 
L 1269 4134 
L 1269 2991 
Q 1406 3038 1543 3061 
Q 1681 3084 1819 3084 
Q 2600 3084 3056 2656 
Q 3513 2228 3513 1497 
Q 3513 744 3044 326 
Q 2575 -91 1722 -91 
Q 1428 -91 1123 -41 
Q 819 9 494 109 
L 494 744 
Q 775 591 1075 516 
Q 1375 441 1709 441 
Q 2250 441 2565 725 
Q 2881 1009 2881 1497 
Q 2881 1984 2565 2268 
Q 2250 2553 1709 2553 
Q 1456 2553 1204 2497 
Q 953 2441 691 2322 
L 691 4666 
z
" transform="scale(0.015625)"/>
       </defs>
       <use xlink:href="#DejaVuSans-35"/>
      </g>
     </g>
    </g>
    <g id="ytick_7">
     <g id="line2d_25">
      <path d="M 34.240625 113.657462 
L 494.570625 113.657462 
" clip-path="url(#p501b0f05ce)" style="fill: none; stroke: #b0b0b0; stroke-opacity: 0.3; stroke-width: 0.8; stroke-linecap: square"/>
     </g>
     <g id="line2d_26">
      <g>
       <use xlink:href="#mc3fea39ddb" x="34.240625" y="113.657462" style="stroke: #000000; stroke-width: 0.8"/>
      </g>
     </g>
     <g id="text_14">
      <!-- 6 -->
      <g transform="translate(20.878125 117.456681) scale(0.1 -0.1)">
       <use xlink:href="#DejaVuSans-36"/>
      </g>
     </g>
    </g>
    <g id="ytick_8">
     <g id="line2d_27">
      <path d="M 34.240625 81.614009 
L 494.570625 81.614009 
" clip-path="url(#p501b0f05ce)" style="fill: none; stroke: #b0b0b0; stroke-opacity: 0.3; stroke-width: 0.8; stroke-linecap: square"/>
     </g>
     <g id="line2d_28">
      <g>
       <use xlink:href="#mc3fea39ddb" x="34.240625" y="81.614009" style="stroke: #000000; stroke-width: 0.8"/>
      </g>
     </g>
     <g id="text_15">
      <!-- 7 -->
      <g transform="translate(20.878125 85.413227) scale(0.1 -0.1)">
       <defs>
        <path id="DejaVuSans-37" d="M 525 4666 
L 3525 4666 
L 3525 4397 
L 1831 0 
L 1172 0 
L 2766 4134 
L 525 4134 
L 525 4666 
z
" transform="scale(0.015625)"/>
       </defs>
       <use xlink:href="#DejaVuSans-37"/>
      </g>
     </g>
    </g>
    <g id="text_16">
     <!-- Cost -->
     <g transform="translate(14.798438 195.815625) rotate(-90) scale(0.1 -0.1)">
      <defs>
       <path id="DejaVuSans-43" d="M 4122 4306 
L 4122 3641 
Q 3803 3938 3442 4084 
Q 3081 4231 2675 4231 
Q 1875 4231 1450 3742 
Q 1025 3253 1025 2328 
Q 1025 1406 1450 917 
Q 1875 428 2675 428 
Q 3081 428 3442 575 
Q 3803 722 4122 1019 
L 4122 359 
Q 3791 134 3420 21 
Q 3050 -91 2638 -91 
Q 1578 -91 968 557 
Q 359 1206 359 2328 
Q 359 3453 968 4101 
Q 1578 4750 2638 4750 
Q 3056 4750 3426 4639 
Q 3797 4528 4122 4306 
z
" transform="scale(0.015625)"/>
       <path id="DejaVuSans-73" d="M 2834 3397 
L 2834 2853 
Q 2591 2978 2328 3040 
Q 2066 3103 1784 3103 
Q 1356 3103 1142 2972 
Q 928 2841 928 2578 
Q 928 2378 1081 2264 
Q 1234 2150 1697 2047 
L 1894 2003 
Q 2506 1872 2764 1633 
Q 3022 1394 3022 966 
Q 3022 478 2636 193 
Q 2250 -91 1575 -91 
Q 1294 -91 989 -36 
Q 684 19 347 128 
L 347 722 
Q 666 556 975 473 
Q 1284 391 1588 391 
Q 1994 391 2212 530 
Q 2431 669 2431 922 
Q 2431 1156 2273 1281 
Q 2116 1406 1581 1522 
L 1381 1569 
Q 847 1681 609 1914 
Q 372 2147 372 2553 
Q 372 3047 722 3315 
Q 1072 3584 1716 3584 
Q 2034 3584 2315 3537 
Q 2597 3491 2834 3397 
z
" transform="scale(0.015625)"/>
      </defs>
      <use xlink:href="#DejaVuSans-43"/>
      <use xlink:href="#DejaVuSans-6f" transform="translate(69.824219 0)"/>
      <use xlink:href="#DejaVuSans-73" transform="translate(131.005859 0)"/>
      <use xlink:href="#DejaVuSans-74" transform="translate(183.105469 0)"/>
     </g>
    </g>
   </g>
   <g id="line2d_29">
    <path d="M 55.164716 63.481818 
L 59.391805 159.752303 
L 63.618894 197.212921 
L 67.845983 213.887836 
L 72.073072 222.277582 
L 76.300161 233.687786 
L 80.52725 237.115968 
L 84.754339 245.799583 
L 88.981428 253.873811 
L 93.208518 259.977963 
L 97.435607 262.052237 
L 101.662696 263.282636 
L 105.889785 266.401372 
L 110.116874 270.435781 
L 114.343963 276.23004 
L 118.571052 277.375211 
L 122.798141 278.190775 
L 127.02523 278.748891 
L 131.252319 280.040985 
L 135.479408 284.65759 
L 139.706497 285.207972 
L 143.933586 285.756568 
L 148.160676 286.276229 
L 152.387765 286.297766 
L 156.614854 286.382213 
L 160.841943 286.691982 
L 165.069032 287.422383 
L 169.296121 290.127826 
L 173.52321 290.620153 
L 177.750299 291.309642 
L 181.977388 291.597438 
L 186.204477 291.862092 
L 190.431566 292.119345 
L 194.658655 292.367531 
L 198.885744 292.610089 
L 203.112833 292.844102 
L 207.339923 293.073539 
L 211.567012 293.294755 
L 215.794101 293.512484 
L 220.02119 293.722336 
L 224.248279 293.929774 
L 228.475368 294.129782 
L 232.702457 294.32834 
L 236.929546 294.520069 
L 241.156635 294.711074 
L 245.383724 294.895934 
L 249.610813 295.08051 
L 253.837902 295.259553 
L 258.064991 295.438565 
L 262.29208 295.612552 
L 266.51917 295.612993 
L 270.746259 295.614754 
L 274.973348 295.621765 
L 279.200437 295.649286 
L 283.427526 295.750762 
L 287.654615 296.001688 
L 291.881704 296.738811 
L 296.108793 296.957718 
L 300.335882 297.076763 
L 304.562971 297.180873 
L 308.79006 297.343763 
L 313.017149 297.438642 
L 317.244238 297.584486 
L 321.471327 297.683791 
L 325.698417 297.775356 
L 329.925506 297.916076 
L 334.152595 298.006289 
L 338.379684 298.110517 
L 342.606773 298.164264 
L 346.833862 298.314697 
L 351.060951 298.412993 
L 355.28804 298.578027 
L 359.515129 298.609045 
L 363.742218 298.715368 
L 367.969307 298.785843 
L 372.196396 298.931537 
L 376.423485 299.064834 
L 380.650574 299.422391 
L 384.877664 299.502971 
L 389.104753 299.574906 
L 393.331842 299.589109 
L 397.558931 299.640885 
L 401.78602 299.756144 
L 406.013109 300.115077 
L 410.240198 300.180944 
L 414.467287 300.276679 
L 418.694376 300.318034 
L 422.921465 300.408606 
L 427.148554 300.629471 
L 431.375643 300.721209 
L 435.602732 300.731914 
L 439.829822 300.771507 
L 444.056911 300.87136 
L 448.284 300.936186 
L 452.511089 301.140094 
L 456.738178 301.17166 
L 460.965267 301.266081 
L 465.192356 301.269139 
L 469.419445 301.281019 
L 473.646534 301.322704 
" clip-path="url(#p501b0f05ce)" style="fill: none; stroke: #1f77b4; stroke-width: 1.5; stroke-linecap: square"/>
   </g>
   <g id="line2d_30">
    <path d="M 55.164716 65.070936 
L 59.391805 277.898629 
L 63.618894 304.661107 
L 67.845983 305.887736 
L 72.073072 305.917693 
L 76.300161 305.918182 
L 80.52725 305.918182 
" clip-path="url(#p501b0f05ce)" style="fill: none; stroke: #ff7f0e; stroke-width: 1.5; stroke-linecap: square"/>
   </g>
   <g id="patch_3">
    <path d="M 34.240625 318.04 
L 34.240625 51.36 
" style="fill: none; stroke: #000000; stroke-width: 0.8; stroke-linejoin: miter; stroke-linecap: square"/>
   </g>
   <g id="patch_4">
    <path d="M 494.570625 318.04 
L 494.570625 51.36 
" style="fill: none; stroke: #000000; stroke-width: 0.8; stroke-linejoin: miter; stroke-linecap: square"/>
   </g>
   <g id="patch_5">
    <path d="M 34.240625 318.04 
L 494.570625 318.04 
" style="fill: none; stroke: #000000; stroke-width: 0.8; stroke-linejoin: miter; stroke-linecap: square"/>
   </g>
   <g id="patch_6">
    <path d="M 34.240625 51.36 
L 494.570625 51.36 
" style="fill: none; stroke: #000000; stroke-width: 0.8; stroke-linejoin: miter; stroke-linecap: square"/>
   </g>
   <g id="text_17">
    <!-- Red channel — k = 1023 -->
    <g transform="translate(189.956875 45.36) scale(0.12 -0.12)">
     <defs>
      <path id="DejaVuSans-52" d="M 2841 2188 
Q 3044 2119 3236 1894 
Q 3428 1669 3622 1275 
L 4263 0 
L 3584 0 
L 2988 1197 
Q 2756 1666 2539 1819 
Q 2322 1972 1947 1972 
L 1259 1972 
L 1259 0 
L 628 0 
L 628 4666 
L 2053 4666 
Q 2853 4666 3247 4331 
Q 3641 3997 3641 3322 
Q 3641 2881 3436 2590 
Q 3231 2300 2841 2188 
z
M 1259 4147 
L 1259 2491 
L 2053 2491 
Q 2509 2491 2742 2702 
Q 2975 2913 2975 3322 
Q 2975 3731 2742 3939 
Q 2509 4147 2053 4147 
L 1259 4147 
z
" transform="scale(0.015625)"/>
      <path id="DejaVuSans-64" d="M 2906 2969 
L 2906 4863 
L 3481 4863 
L 3481 0 
L 2906 0 
L 2906 525 
Q 2725 213 2448 61 
Q 2172 -91 1784 -91 
Q 1150 -91 751 415 
Q 353 922 353 1747 
Q 353 2572 751 3078 
Q 1150 3584 1784 3584 
Q 2172 3584 2448 3432 
Q 2725 3281 2906 2969 
z
M 947 1747 
Q 947 1113 1208 752 
Q 1469 391 1925 391 
Q 2381 391 2643 752 
Q 2906 1113 2906 1747 
Q 2906 2381 2643 2742 
Q 2381 3103 1925 3103 
Q 1469 3103 1208 2742 
Q 947 2381 947 1747 
z
" transform="scale(0.015625)"/>
      <path id="DejaVuSans-20" transform="scale(0.015625)"/>
      <path id="DejaVuSans-63" d="M 3122 3366 
L 3122 2828 
Q 2878 2963 2633 3030 
Q 2388 3097 2138 3097 
Q 1578 3097 1268 2742 
Q 959 2388 959 1747 
Q 959 1106 1268 751 
Q 1578 397 2138 397 
Q 2388 397 2633 464 
Q 2878 531 3122 666 
L 3122 134 
Q 2881 22 2623 -34 
Q 2366 -91 2075 -91 
Q 1284 -91 818 406 
Q 353 903 353 1747 
Q 353 2603 823 3093 
Q 1294 3584 2113 3584 
Q 2378 3584 2631 3529 
Q 2884 3475 3122 3366 
z
" transform="scale(0.015625)"/>
      <path id="DejaVuSans-68" d="M 3513 2113 
L 3513 0 
L 2938 0 
L 2938 2094 
Q 2938 2591 2744 2837 
Q 2550 3084 2163 3084 
Q 1697 3084 1428 2787 
Q 1159 2491 1159 1978 
L 1159 0 
L 581 0 
L 581 4863 
L 1159 4863 
L 1159 2956 
Q 1366 3272 1645 3428 
Q 1925 3584 2291 3584 
Q 2894 3584 3203 3211 
Q 3513 2838 3513 2113 
z
" transform="scale(0.015625)"/>
      <path id="DejaVuSans-6c" d="M 603 4863 
L 1178 4863 
L 1178 0 
L 603 0 
L 603 4863 
z
" transform="scale(0.015625)"/>
      <path id="DejaVuSans-2014" d="M 313 1978 
L 6088 1978 
L 6088 1528 
L 313 1528 
L 313 1978 
z
" transform="scale(0.015625)"/>
      <path id="DejaVuSans-6b" d="M 581 4863 
L 1159 4863 
L 1159 1991 
L 2875 3500 
L 3609 3500 
L 1753 1863 
L 3688 0 
L 2938 0 
L 1159 1709 
L 1159 0 
L 581 0 
L 581 4863 
z
" transform="scale(0.015625)"/>
      <path id="DejaVuSans-3d" d="M 678 2906 
L 4684 2906 
L 4684 2381 
L 678 2381 
L 678 2906 
z
M 678 1631 
L 4684 1631 
L 4684 1100 
L 678 1100 
L 678 1631 
z
" transform="scale(0.015625)"/>
     </defs>
     <use xlink:href="#DejaVuSans-52"/>
     <use xlink:href="#DejaVuSans-65" transform="translate(64.982422 0)"/>
     <use xlink:href="#DejaVuSans-64" transform="translate(126.505859 0)"/>
     <use xlink:href="#DejaVuSans-20" transform="translate(189.982422 0)"/>
     <use xlink:href="#DejaVuSans-63" transform="translate(221.769531 0)"/>
     <use xlink:href="#DejaVuSans-68" transform="translate(276.75 0)"/>
     <use xlink:href="#DejaVuSans-61" transform="translate(340.128906 0)"/>
     <use xlink:href="#DejaVuSans-6e" transform="translate(401.408203 0)"/>
     <use xlink:href="#DejaVuSans-6e" transform="translate(464.787109 0)"/>
     <use xlink:href="#DejaVuSans-65" transform="translate(528.166016 0)"/>
     <use xlink:href="#DejaVuSans-6c" transform="translate(589.689453 0)"/>
     <use xlink:href="#DejaVuSans-20" transform="translate(617.472656 0)"/>
     <use xlink:href="#DejaVuSans-2014" transform="translate(649.259766 0)"/>
     <use xlink:href="#DejaVuSans-20" transform="translate(749.259766 0)"/>
     <use xlink:href="#DejaVuSans-6b" transform="translate(781.046875 0)"/>
     <use xlink:href="#DejaVuSans-20" transform="translate(838.957031 0)"/>
     <use xlink:href="#DejaVuSans-3d" transform="translate(870.744141 0)"/>
     <use xlink:href="#DejaVuSans-20" transform="translate(954.533203 0)"/>
     <use xlink:href="#DejaVuSans-31" transform="translate(986.320312 0)"/>
     <use xlink:href="#DejaVuSans-30" transform="translate(1049.943359 0)"/>
     <use xlink:href="#DejaVuSans-32" transform="translate(1113.566406 0)"/>
     <use xlink:href="#DejaVuSans-33" transform="translate(1177.189453 0)"/>
    </g>
   </g>
   <g id="legend_1">
    <g id="patch_7">
     <path d="M 370.3925 88.71625 
L 487.570625 88.71625 
Q 489.570625 88.71625 489.570625 86.71625 
L 489.570625 58.36 
Q 489.570625 56.36 487.570625 56.36 
L 370.3925 56.36 
Q 368.3925 56.36 368.3925 58.36 
L 368.3925 86.71625 
Q 368.3925 88.71625 370.3925 88.71625 
z
" style="fill: #ffffff; opacity: 0.8; stroke: #cccccc; stroke-linejoin: miter"/>
    </g>
    <g id="line2d_31">
     <path d="M 372.3925 64.458437 
L 382.3925 64.458437 
L 392.3925 64.458437 
" style="fill: none; stroke: #1f77b4; stroke-width: 1.5; stroke-linecap: square"/>
    </g>
    <g id="text_18">
     <!-- SteepestDescent -->
     <g transform="translate(400.3925 67.958437) scale(0.1 -0.1)">
      <defs>
       <path id="DejaVuSans-53" d="M 3425 4513 
L 3425 3897 
Q 3066 4069 2747 4153 
Q 2428 4238 2131 4238 
Q 1616 4238 1336 4038 
Q 1056 3838 1056 3469 
Q 1056 3159 1242 3001 
Q 1428 2844 1947 2747 
L 2328 2669 
Q 3034 2534 3370 2195 
Q 3706 1856 3706 1288 
Q 3706 609 3251 259 
Q 2797 -91 1919 -91 
Q 1588 -91 1214 -16 
Q 841 59 441 206 
L 441 856 
Q 825 641 1194 531 
Q 1563 422 1919 422 
Q 2459 422 2753 634 
Q 3047 847 3047 1241 
Q 3047 1584 2836 1778 
Q 2625 1972 2144 2069 
L 1759 2144 
Q 1053 2284 737 2584 
Q 422 2884 422 3419 
Q 422 4038 858 4394 
Q 1294 4750 2059 4750 
Q 2388 4750 2728 4690 
Q 3069 4631 3425 4513 
z
" transform="scale(0.015625)"/>
       <path id="DejaVuSans-70" d="M 1159 525 
L 1159 -1331 
L 581 -1331 
L 581 3500 
L 1159 3500 
L 1159 2969 
Q 1341 3281 1617 3432 
Q 1894 3584 2278 3584 
Q 2916 3584 3314 3078 
Q 3713 2572 3713 1747 
Q 3713 922 3314 415 
Q 2916 -91 2278 -91 
Q 1894 -91 1617 61 
Q 1341 213 1159 525 
z
M 3116 1747 
Q 3116 2381 2855 2742 
Q 2594 3103 2138 3103 
Q 1681 3103 1420 2742 
Q 1159 2381 1159 1747 
Q 1159 1113 1420 752 
Q 1681 391 2138 391 
Q 2594 391 2855 752 
Q 3116 1113 3116 1747 
z
" transform="scale(0.015625)"/>
       <path id="DejaVuSans-44" d="M 1259 4147 
L 1259 519 
L 2022 519 
Q 2988 519 3436 956 
Q 3884 1394 3884 2338 
Q 3884 3275 3436 3711 
Q 2988 4147 2022 4147 
L 1259 4147 
z
M 628 4666 
L 1925 4666 
Q 3281 4666 3915 4102 
Q 4550 3538 4550 2338 
Q 4550 1131 3912 565 
Q 3275 0 1925 0 
L 628 0 
L 628 4666 
z
" transform="scale(0.015625)"/>
      </defs>
      <use xlink:href="#DejaVuSans-53"/>
      <use xlink:href="#DejaVuSans-74" transform="translate(63.476562 0)"/>
      <use xlink:href="#DejaVuSans-65" transform="translate(102.685547 0)"/>
      <use xlink:href="#DejaVuSans-65" transform="translate(164.208984 0)"/>
      <use xlink:href="#DejaVuSans-70" transform="translate(225.732422 0)"/>
      <use xlink:href="#DejaVuSans-65" transform="translate(289.208984 0)"/>
      <use xlink:href="#DejaVuSans-73" transform="translate(350.732422 0)"/>
      <use xlink:href="#DejaVuSans-74" transform="translate(402.832031 0)"/>
      <use xlink:href="#DejaVuSans-44" transform="translate(442.041016 0)"/>
      <use xlink:href="#DejaVuSans-65" transform="translate(519.042969 0)"/>
      <use xlink:href="#DejaVuSans-73" transform="translate(580.566406 0)"/>
      <use xlink:href="#DejaVuSans-63" transform="translate(632.666016 0)"/>
      <use xlink:href="#DejaVuSans-65" transform="translate(687.646484 0)"/>
      <use xlink:href="#DejaVuSans-6e" transform="translate(749.169922 0)"/>
      <use xlink:href="#DejaVuSans-74" transform="translate(812.548828 0)"/>
     </g>
    </g>
    <g id="line2d_32">
     <path d="M 372.3925 79.136562 
L 382.3925 79.136562 
L 392.3925 79.136562 
" style="fill: none; stroke: #ff7f0e; stroke-width: 1.5; stroke-linecap: square"/>
    </g>
    <g id="text_19">
     <!-- TrustRegions -->
     <g transform="translate(400.3925 82.636562) scale(0.1 -0.1)">
      <defs>
       <path id="DejaVuSans-54" d="M -19 4666 
L 3928 4666 
L 3928 4134 
L 2272 4134 
L 2272 0 
L 1638 0 
L 1638 4134 
L -19 4134 
L -19 4666 
z
" transform="scale(0.015625)"/>
       <path id="DejaVuSans-75" d="M 544 1381 
L 544 3500 
L 1119 3500 
L 1119 1403 
Q 1119 906 1312 657 
Q 1506 409 1894 409 
Q 2359 409 2629 706 
Q 2900 1003 2900 1516 
L 2900 3500 
L 3475 3500 
L 3475 0 
L 2900 0 
L 2900 538 
Q 2691 219 2414 64 
Q 2138 -91 1772 -91 
Q 1169 -91 856 284 
Q 544 659 544 1381 
z
M 1991 3584 
L 1991 3584 
z
" transform="scale(0.015625)"/>
       <path id="DejaVuSans-67" d="M 2906 1791 
Q 2906 2416 2648 2759 
Q 2391 3103 1925 3103 
Q 1463 3103 1205 2759 
Q 947 2416 947 1791 
Q 947 1169 1205 825 
Q 1463 481 1925 481 
Q 2391 481 2648 825 
Q 2906 1169 2906 1791 
z
M 3481 434 
Q 3481 -459 3084 -895 
Q 2688 -1331 1869 -1331 
Q 1566 -1331 1297 -1286 
Q 1028 -1241 775 -1147 
L 775 -588 
Q 1028 -725 1275 -790 
Q 1522 -856 1778 -856 
Q 2344 -856 2625 -561 
Q 2906 -266 2906 331 
L 2906 616 
Q 2728 306 2450 153 
Q 2172 0 1784 0 
Q 1141 0 747 490 
Q 353 981 353 1791 
Q 353 2603 747 3093 
Q 1141 3584 1784 3584 
Q 2172 3584 2450 3431 
Q 2728 3278 2906 2969 
L 2906 3500 
L 3481 3500 
L 3481 434 
z
" transform="scale(0.015625)"/>
      </defs>
      <use xlink:href="#DejaVuSans-54"/>
      <use xlink:href="#DejaVuSans-72" transform="translate(46.333984 0)"/>
      <use xlink:href="#DejaVuSans-75" transform="translate(87.447266 0)"/>
      <use xlink:href="#DejaVuSans-73" transform="translate(150.826172 0)"/>
      <use xlink:href="#DejaVuSans-74" transform="translate(202.925781 0)"/>
      <use xlink:href="#DejaVuSans-52" transform="translate(242.134766 0)"/>
      <use xlink:href="#DejaVuSans-65" transform="translate(307.117188 0)"/>
      <use xlink:href="#DejaVuSans-67" transform="translate(368.640625 0)"/>
      <use xlink:href="#DejaVuSans-69" transform="translate(432.117188 0)"/>
      <use xlink:href="#DejaVuSans-6f" transform="translate(459.900391 0)"/>
      <use xlink:href="#DejaVuSans-6e" transform="translate(521.082031 0)"/>
      <use xlink:href="#DejaVuSans-73" transform="translate(584.460938 0)"/>
     </g>
    </g>
   </g>
  </g>
  <g id="axes_2">
   <g id="patch_8">
    <path d="M 532.840625 318.04 
L 993.170625 318.04 
L 993.170625 51.36 
L 532.840625 51.36 
z
" style="fill: #ffffff"/>
   </g>
   <g id="matplotlib.axis_3">
    <g id="xtick_7">
     <g id="line2d_33">
      <path d="M 549.537627 318.04 
L 549.537627 51.36 
" clip-path="url(#pdd9b9f1f7b)" style="fill: none; stroke: #b0b0b0; stroke-opacity: 0.3; stroke-width: 0.8; stroke-linecap: square"/>
     </g>
     <g id="line2d_34">
      <g>
       <use xlink:href="#md3452a0876" x="549.537627" y="318.04" style="stroke: #000000; stroke-width: 0.8"/>
      </g>
     </g>
     <g id="text_20">
      <!-- 0 -->
      <g transform="translate(546.356377 332.638437) scale(0.1 -0.1)">
       <use xlink:href="#DejaVuSans-30"/>
      </g>
     </g>
    </g>
    <g id="xtick_8">
     <g id="line2d_35">
      <path d="M 634.079408 318.04 
L 634.079408 51.36 
" clip-path="url(#pdd9b9f1f7b)" style="fill: none; stroke: #b0b0b0; stroke-opacity: 0.3; stroke-width: 0.8; stroke-linecap: square"/>
     </g>
     <g id="line2d_36">
      <g>
       <use xlink:href="#md3452a0876" x="634.079408" y="318.04" style="stroke: #000000; stroke-width: 0.8"/>
      </g>
     </g>
     <g id="text_21">
      <!-- 20 -->
      <g transform="translate(627.716908 332.638437) scale(0.1 -0.1)">
       <use xlink:href="#DejaVuSans-32"/>
       <use xlink:href="#DejaVuSans-30" transform="translate(63.623047 0)"/>
      </g>
     </g>
    </g>
    <g id="xtick_9">
     <g id="line2d_37">
      <path d="M 718.62119 318.04 
L 718.62119 51.36 
" clip-path="url(#pdd9b9f1f7b)" style="fill: none; stroke: #b0b0b0; stroke-opacity: 0.3; stroke-width: 0.8; stroke-linecap: square"/>
     </g>
     <g id="line2d_38">
      <g>
       <use xlink:href="#md3452a0876" x="718.62119" y="318.04" style="stroke: #000000; stroke-width: 0.8"/>
      </g>
     </g>
     <g id="text_22">
      <!-- 40 -->
      <g transform="translate(712.25869 332.638437) scale(0.1 -0.1)">
       <use xlink:href="#DejaVuSans-34"/>
       <use xlink:href="#DejaVuSans-30" transform="translate(63.623047 0)"/>
      </g>
     </g>
    </g>
    <g id="xtick_10">
     <g id="line2d_39">
      <path d="M 803.162971 318.04 
L 803.162971 51.36 
" clip-path="url(#pdd9b9f1f7b)" style="fill: none; stroke: #b0b0b0; stroke-opacity: 0.3; stroke-width: 0.8; stroke-linecap: square"/>
     </g>
     <g id="line2d_40">
      <g>
       <use xlink:href="#md3452a0876" x="803.162971" y="318.04" style="stroke: #000000; stroke-width: 0.8"/>
      </g>
     </g>
     <g id="text_23">
      <!-- 60 -->
      <g transform="translate(796.800471 332.638437) scale(0.1 -0.1)">
       <use xlink:href="#DejaVuSans-36"/>
       <use xlink:href="#DejaVuSans-30" transform="translate(63.623047 0)"/>
      </g>
     </g>
    </g>
    <g id="xtick_11">
     <g id="line2d_41">
      <path d="M 887.704753 318.04 
L 887.704753 51.36 
" clip-path="url(#pdd9b9f1f7b)" style="fill: none; stroke: #b0b0b0; stroke-opacity: 0.3; stroke-width: 0.8; stroke-linecap: square"/>
     </g>
     <g id="line2d_42">
      <g>
       <use xlink:href="#md3452a0876" x="887.704753" y="318.04" style="stroke: #000000; stroke-width: 0.8"/>
      </g>
     </g>
     <g id="text_24">
      <!-- 80 -->
      <g transform="translate(881.342253 332.638437) scale(0.1 -0.1)">
       <use xlink:href="#DejaVuSans-38"/>
       <use xlink:href="#DejaVuSans-30" transform="translate(63.623047 0)"/>
      </g>
     </g>
    </g>
    <g id="xtick_12">
     <g id="line2d_43">
      <path d="M 972.246534 318.04 
L 972.246534 51.36 
" clip-path="url(#pdd9b9f1f7b)" style="fill: none; stroke: #b0b0b0; stroke-opacity: 0.3; stroke-width: 0.8; stroke-linecap: square"/>
     </g>
     <g id="line2d_44">
      <g>
       <use xlink:href="#md3452a0876" x="972.246534" y="318.04" style="stroke: #000000; stroke-width: 0.8"/>
      </g>
     </g>
     <g id="text_25">
      <!-- 100 -->
      <g transform="translate(962.702784 332.638437) scale(0.1 -0.1)">
       <use xlink:href="#DejaVuSans-31"/>
       <use xlink:href="#DejaVuSans-30" transform="translate(63.623047 0)"/>
       <use xlink:href="#DejaVuSans-30" transform="translate(127.246094 0)"/>
      </g>
     </g>
    </g>
    <g id="text_26">
     <!-- Iteration -->
     <g transform="translate(741.797031 346.316562) scale(0.1 -0.1)">
      <use xlink:href="#DejaVuSans-49"/>
      <use xlink:href="#DejaVuSans-74" transform="translate(29.492188 0)"/>
      <use xlink:href="#DejaVuSans-65" transform="translate(68.701172 0)"/>
      <use xlink:href="#DejaVuSans-72" transform="translate(130.224609 0)"/>
      <use xlink:href="#DejaVuSans-61" transform="translate(171.337891 0)"/>
      <use xlink:href="#DejaVuSans-74" transform="translate(232.617188 0)"/>
      <use xlink:href="#DejaVuSans-69" transform="translate(271.826172 0)"/>
      <use xlink:href="#DejaVuSans-6f" transform="translate(299.609375 0)"/>
      <use xlink:href="#DejaVuSans-6e" transform="translate(360.791016 0)"/>
     </g>
    </g>
   </g>
   <g id="matplotlib.axis_4">
    <g id="ytick_9">
     <g id="line2d_45">
      <path d="M 532.840625 305.918182 
L 993.170625 305.918182 
" clip-path="url(#pdd9b9f1f7b)" style="fill: none; stroke: #b0b0b0; stroke-opacity: 0.3; stroke-width: 0.8; stroke-linecap: square"/>
     </g>
     <g id="line2d_46">
      <g>
       <use xlink:href="#mc3fea39ddb" x="532.840625" y="305.918182" style="stroke: #000000; stroke-width: 0.8"/>
      </g>
     </g>
     <g id="text_27">
      <!-- 0 -->
      <g transform="translate(519.478125 309.717401) scale(0.1 -0.1)">
       <use xlink:href="#DejaVuSans-30"/>
      </g>
     </g>
    </g>
    <g id="ytick_10">
     <g id="line2d_47">
      <path d="M 532.840625 275.060984 
L 993.170625 275.060984 
" clip-path="url(#pdd9b9f1f7b)" style="fill: none; stroke: #b0b0b0; stroke-opacity: 0.3; stroke-width: 0.8; stroke-linecap: square"/>
     </g>
     <g id="line2d_48">
      <g>
       <use xlink:href="#mc3fea39ddb" x="532.840625" y="275.060984" style="stroke: #000000; stroke-width: 0.8"/>
      </g>
     </g>
     <g id="text_28">
      <!-- 1 -->
      <g transform="translate(519.478125 278.860203) scale(0.1 -0.1)">
       <use xlink:href="#DejaVuSans-31"/>
      </g>
     </g>
    </g>
    <g id="ytick_11">
     <g id="line2d_49">
      <path d="M 532.840625 244.203786 
L 993.170625 244.203786 
" clip-path="url(#pdd9b9f1f7b)" style="fill: none; stroke: #b0b0b0; stroke-opacity: 0.3; stroke-width: 0.8; stroke-linecap: square"/>
     </g>
     <g id="line2d_50">
      <g>
       <use xlink:href="#mc3fea39ddb" x="532.840625" y="244.203786" style="stroke: #000000; stroke-width: 0.8"/>
      </g>
     </g>
     <g id="text_29">
      <!-- 2 -->
      <g transform="translate(519.478125 248.003005) scale(0.1 -0.1)">
       <use xlink:href="#DejaVuSans-32"/>
      </g>
     </g>
    </g>
    <g id="ytick_12">
     <g id="line2d_51">
      <path d="M 532.840625 213.346588 
L 993.170625 213.346588 
" clip-path="url(#pdd9b9f1f7b)" style="fill: none; stroke: #b0b0b0; stroke-opacity: 0.3; stroke-width: 0.8; stroke-linecap: square"/>
     </g>
     <g id="line2d_52">
      <g>
       <use xlink:href="#mc3fea39ddb" x="532.840625" y="213.346588" style="stroke: #000000; stroke-width: 0.8"/>
      </g>
     </g>
     <g id="text_30">
      <!-- 3 -->
      <g transform="translate(519.478125 217.145807) scale(0.1 -0.1)">
       <use xlink:href="#DejaVuSans-33"/>
      </g>
     </g>
    </g>
    <g id="ytick_13">
     <g id="line2d_53">
      <path d="M 532.840625 182.489391 
L 993.170625 182.489391 
" clip-path="url(#pdd9b9f1f7b)" style="fill: none; stroke: #b0b0b0; stroke-opacity: 0.3; stroke-width: 0.8; stroke-linecap: square"/>
     </g>
     <g id="line2d_54">
      <g>
       <use xlink:href="#mc3fea39ddb" x="532.840625" y="182.489391" style="stroke: #000000; stroke-width: 0.8"/>
      </g>
     </g>
     <g id="text_31">
      <!-- 4 -->
      <g transform="translate(519.478125 186.288609) scale(0.1 -0.1)">
       <use xlink:href="#DejaVuSans-34"/>
      </g>
     </g>
    </g>
    <g id="ytick_14">
     <g id="line2d_55">
      <path d="M 532.840625 151.632193 
L 993.170625 151.632193 
" clip-path="url(#pdd9b9f1f7b)" style="fill: none; stroke: #b0b0b0; stroke-opacity: 0.3; stroke-width: 0.8; stroke-linecap: square"/>
     </g>
     <g id="line2d_56">
      <g>
       <use xlink:href="#mc3fea39ddb" x="532.840625" y="151.632193" style="stroke: #000000; stroke-width: 0.8"/>
      </g>
     </g>
     <g id="text_32">
      <!-- 5 -->
      <g transform="translate(519.478125 155.431412) scale(0.1 -0.1)">
       <use xlink:href="#DejaVuSans-35"/>
      </g>
     </g>
    </g>
    <g id="ytick_15">
     <g id="line2d_57">
      <path d="M 532.840625 120.774995 
L 993.170625 120.774995 
" clip-path="url(#pdd9b9f1f7b)" style="fill: none; stroke: #b0b0b0; stroke-opacity: 0.3; stroke-width: 0.8; stroke-linecap: square"/>
     </g>
     <g id="line2d_58">
      <g>
       <use xlink:href="#mc3fea39ddb" x="532.840625" y="120.774995" style="stroke: #000000; stroke-width: 0.8"/>
      </g>
     </g>
     <g id="text_33">
      <!-- 6 -->
      <g transform="translate(519.478125 124.574214) scale(0.1 -0.1)">
       <use xlink:href="#DejaVuSans-36"/>
      </g>
     </g>
    </g>
    <g id="ytick_16">
     <g id="line2d_59">
      <path d="M 532.840625 89.917797 
L 993.170625 89.917797 
" clip-path="url(#pdd9b9f1f7b)" style="fill: none; stroke: #b0b0b0; stroke-opacity: 0.3; stroke-width: 0.8; stroke-linecap: square"/>
     </g>
     <g id="line2d_60">
      <g>
       <use xlink:href="#mc3fea39ddb" x="532.840625" y="89.917797" style="stroke: #000000; stroke-width: 0.8"/>
      </g>
     </g>
     <g id="text_34">
      <!-- 7 -->
      <g transform="translate(519.478125 93.717016) scale(0.1 -0.1)">
       <use xlink:href="#DejaVuSans-37"/>
      </g>
     </g>
    </g>
    <g id="ytick_17">
     <g id="line2d_61">
      <path d="M 532.840625 59.0606 
L 993.170625 59.0606 
" clip-path="url(#pdd9b9f1f7b)" style="fill: none; stroke: #b0b0b0; stroke-opacity: 0.3; stroke-width: 0.8; stroke-linecap: square"/>
     </g>
     <g id="line2d_62">
      <g>
       <use xlink:href="#mc3fea39ddb" x="532.840625" y="59.0606" style="stroke: #000000; stroke-width: 0.8"/>
      </g>
     </g>
     <g id="text_35">
      <!-- 8 -->
      <g transform="translate(519.478125 62.859818) scale(0.1 -0.1)">
       <use xlink:href="#DejaVuSans-38"/>
      </g>
     </g>
    </g>
    <g id="text_36">
     <!-- Cost -->
     <g transform="translate(513.398438 195.815625) rotate(-90) scale(0.1 -0.1)">
      <use xlink:href="#DejaVuSans-43"/>
      <use xlink:href="#DejaVuSans-6f" transform="translate(69.824219 0)"/>
      <use xlink:href="#DejaVuSans-73" transform="translate(131.005859 0)"/>
      <use xlink:href="#DejaVuSans-74" transform="translate(183.105469 0)"/>
     </g>
    </g>
   </g>
   <g id="line2d_63">
    <path d="M 553.764716 63.481818 
L 557.991805 165.796886 
L 562.218894 193.695638 
L 566.445983 214.875085 
L 570.673072 216.155357 
L 574.900161 220.971002 
L 579.12725 234.802516 
L 583.354339 240.7448 
L 587.581428 245.781493 
L 591.808518 249.91317 
L 596.035607 253.653043 
L 600.262696 256.647896 
L 604.489785 256.950186 
L 608.716874 258.099169 
L 612.943963 261.651829 
L 617.171052 263.304022 
L 621.398141 266.236045 
L 625.62523 267.454341 
L 629.852319 270.524953 
L 634.079408 273.266669 
L 638.306497 273.500718 
L 642.533586 274.377289 
L 646.760676 276.813096 
L 650.987765 277.705318 
L 655.214854 278.317363 
L 659.441943 279.713123 
L 663.669032 284.414232 
L 667.896121 284.581211 
L 672.12321 285.150956 
L 676.350299 285.506033 
L 680.577388 286.340138 
L 684.804477 289.427437 
L 689.031566 289.650794 
L 693.258655 290.503198 
L 697.485744 293.189887 
L 701.712833 293.31098 
L 705.939923 293.754575 
L 710.167012 294.750416 
L 714.394101 295.157081 
L 718.62119 295.54796 
L 722.848279 295.777547 
L 727.075368 295.949489 
L 731.302457 296.099684 
L 735.529546 296.245064 
L 739.756635 296.386024 
L 743.983724 296.524658 
L 748.210813 296.659484 
L 752.437902 296.79229 
L 756.664991 296.921379 
L 760.89208 297.048835 
L 765.11917 297.17269 
L 769.346259 297.295291 
L 773.573348 297.414434 
L 777.800437 297.532682 
L 782.027526 297.647652 
L 786.254615 297.762035 
L 790.481704 297.873357 
L 794.708793 297.984329 
L 798.935882 298.092468 
L 803.162971 298.200424 
L 807.39006 298.305761 
L 811.617149 298.411026 
L 815.844238 298.513861 
L 820.071327 298.616697 
L 824.298417 298.717267 
L 828.525506 298.717462 
L 832.752595 298.718242 
L 836.979684 298.721352 
L 841.206773 298.733615 
L 845.433862 298.779768 
L 849.660951 298.913656 
L 853.88804 298.976571 
L 858.115129 299.124531 
L 862.342218 299.688515 
L 866.569307 299.745509 
L 870.796396 299.904119 
L 875.023485 299.968866 
L 879.250574 299.999405 
L 883.477664 300.091419 
L 887.704753 300.1427 
L 891.931842 300.234208 
L 896.158931 300.288209 
L 900.38602 300.38857 
L 904.613109 300.444977 
L 908.840198 300.564282 
L 913.067287 300.831004 
L 917.294376 301.004532 
L 921.521465 301.058405 
L 925.748554 301.064431 
L 929.975643 301.087252 
L 934.202732 301.156254 
L 938.429822 301.19243 
L 942.656911 301.261056 
L 946.884 301.311603 
L 951.111089 301.377064 
L 955.338178 301.419296 
L 959.565267 301.444091 
L 963.792356 301.510314 
L 968.019445 301.539905 
L 972.246534 301.641536 
" clip-path="url(#pdd9b9f1f7b)" style="fill: none; stroke: #1f77b4; stroke-width: 1.5; stroke-linecap: square"/>
   </g>
   <g id="line2d_64">
    <path d="M 553.764716 80.27026 
L 557.991805 285.21153 
L 562.218894 305.056946 
L 566.445983 305.911557 
L 570.673072 305.918142 
L 574.900161 305.918182 
L 579.12725 305.918182 
" clip-path="url(#pdd9b9f1f7b)" style="fill: none; stroke: #ff7f0e; stroke-width: 1.5; stroke-linecap: square"/>
   </g>
   <g id="patch_9">
    <path d="M 532.840625 318.04 
L 532.840625 51.36 
" style="fill: none; stroke: #000000; stroke-width: 0.8; stroke-linejoin: miter; stroke-linecap: square"/>
   </g>
   <g id="patch_10">
    <path d="M 993.170625 318.04 
L 993.170625 51.36 
" style="fill: none; stroke: #000000; stroke-width: 0.8; stroke-linejoin: miter; stroke-linecap: square"/>
   </g>
   <g id="patch_11">
    <path d="M 532.840625 318.04 
L 993.170625 318.04 
" style="fill: none; stroke: #000000; stroke-width: 0.8; stroke-linejoin: miter; stroke-linecap: square"/>
   </g>
   <g id="patch_12">
    <path d="M 532.840625 51.36 
L 993.170625 51.36 
" style="fill: none; stroke: #000000; stroke-width: 0.8; stroke-linejoin: miter; stroke-linecap: square"/>
   </g>
   <g id="text_37">
    <!-- Red channel — k = 30 -->
    <g transform="translate(696.191875 45.36) scale(0.12 -0.12)">
     <use xlink:href="#DejaVuSans-52"/>
     <use xlink:href="#DejaVuSans-65" transform="translate(64.982422 0)"/>
     <use xlink:href="#DejaVuSans-64" transform="translate(126.505859 0)"/>
     <use xlink:href="#DejaVuSans-20" transform="translate(189.982422 0)"/>
     <use xlink:href="#DejaVuSans-63" transform="translate(221.769531 0)"/>
     <use xlink:href="#DejaVuSans-68" transform="translate(276.75 0)"/>
     <use xlink:href="#DejaVuSans-61" transform="translate(340.128906 0)"/>
     <use xlink:href="#DejaVuSans-6e" transform="translate(401.408203 0)"/>
     <use xlink:href="#DejaVuSans-6e" transform="translate(464.787109 0)"/>
     <use xlink:href="#DejaVuSans-65" transform="translate(528.166016 0)"/>
     <use xlink:href="#DejaVuSans-6c" transform="translate(589.689453 0)"/>
     <use xlink:href="#DejaVuSans-20" transform="translate(617.472656 0)"/>
     <use xlink:href="#DejaVuSans-2014" transform="translate(649.259766 0)"/>
     <use xlink:href="#DejaVuSans-20" transform="translate(749.259766 0)"/>
     <use xlink:href="#DejaVuSans-6b" transform="translate(781.046875 0)"/>
     <use xlink:href="#DejaVuSans-20" transform="translate(838.957031 0)"/>
     <use xlink:href="#DejaVuSans-3d" transform="translate(870.744141 0)"/>
     <use xlink:href="#DejaVuSans-20" transform="translate(954.533203 0)"/>
     <use xlink:href="#DejaVuSans-33" transform="translate(986.320312 0)"/>
     <use xlink:href="#DejaVuSans-30" transform="translate(1049.943359 0)"/>
    </g>
   </g>
   <g id="legend_2">
    <g id="patch_13">
     <path d="M 868.9925 88.71625 
L 986.170625 88.71625 
Q 988.170625 88.71625 988.170625 86.71625 
L 988.170625 58.36 
Q 988.170625 56.36 986.170625 56.36 
L 868.9925 56.36 
Q 866.9925 56.36 866.9925 58.36 
L 866.9925 86.71625 
Q 866.9925 88.71625 868.9925 88.71625 
z
" style="fill: #ffffff; opacity: 0.8; stroke: #cccccc; stroke-linejoin: miter"/>
    </g>
    <g id="line2d_65">
     <path d="M 870.9925 64.458437 
L 880.9925 64.458437 
L 890.9925 64.458437 
" style="fill: none; stroke: #1f77b4; stroke-width: 1.5; stroke-linecap: square"/>
    </g>
    <g id="text_38">
     <!-- SteepestDescent -->
     <g transform="translate(898.9925 67.958437) scale(0.1 -0.1)">
      <use xlink:href="#DejaVuSans-53"/>
      <use xlink:href="#DejaVuSans-74" transform="translate(63.476562 0)"/>
      <use xlink:href="#DejaVuSans-65" transform="translate(102.685547 0)"/>
      <use xlink:href="#DejaVuSans-65" transform="translate(164.208984 0)"/>
      <use xlink:href="#DejaVuSans-70" transform="translate(225.732422 0)"/>
      <use xlink:href="#DejaVuSans-65" transform="translate(289.208984 0)"/>
      <use xlink:href="#DejaVuSans-73" transform="translate(350.732422 0)"/>
      <use xlink:href="#DejaVuSans-74" transform="translate(402.832031 0)"/>
      <use xlink:href="#DejaVuSans-44" transform="translate(442.041016 0)"/>
      <use xlink:href="#DejaVuSans-65" transform="translate(519.042969 0)"/>
      <use xlink:href="#DejaVuSans-73" transform="translate(580.566406 0)"/>
      <use xlink:href="#DejaVuSans-63" transform="translate(632.666016 0)"/>
      <use xlink:href="#DejaVuSans-65" transform="translate(687.646484 0)"/>
      <use xlink:href="#DejaVuSans-6e" transform="translate(749.169922 0)"/>
      <use xlink:href="#DejaVuSans-74" transform="translate(812.548828 0)"/>
     </g>
    </g>
    <g id="line2d_66">
     <path d="M 870.9925 79.136562 
L 880.9925 79.136562 
L 890.9925 79.136562 
" style="fill: none; stroke: #ff7f0e; stroke-width: 1.5; stroke-linecap: square"/>
    </g>
    <g id="text_39">
     <!-- TrustRegions -->
     <g transform="translate(898.9925 82.636562) scale(0.1 -0.1)">
      <use xlink:href="#DejaVuSans-54"/>
      <use xlink:href="#DejaVuSans-72" transform="translate(46.333984 0)"/>
      <use xlink:href="#DejaVuSans-75" transform="translate(87.447266 0)"/>
      <use xlink:href="#DejaVuSans-73" transform="translate(150.826172 0)"/>
      <use xlink:href="#DejaVuSans-74" transform="translate(202.925781 0)"/>
      <use xlink:href="#DejaVuSans-52" transform="translate(242.134766 0)"/>
      <use xlink:href="#DejaVuSans-65" transform="translate(307.117188 0)"/>
      <use xlink:href="#DejaVuSans-67" transform="translate(368.640625 0)"/>
      <use xlink:href="#DejaVuSans-69" transform="translate(432.117188 0)"/>
      <use xlink:href="#DejaVuSans-6f" transform="translate(459.900391 0)"/>
      <use xlink:href="#DejaVuSans-6e" transform="translate(521.082031 0)"/>
      <use xlink:href="#DejaVuSans-73" transform="translate(584.460938 0)"/>
     </g>
    </g>
   </g>
  </g>
  <g id="text_40">
   <!-- Q3 — Cost function evolution (Red channel) -->
   <g transform="translate(346.518594 17.837812) scale(0.14 -0.14)">
    <defs>
     <path id="DejaVuSans-51" d="M 2522 4238 
Q 1834 4238 1429 3725 
Q 1025 3213 1025 2328 
Q 1025 1447 1429 934 
Q 1834 422 2522 422 
Q 3209 422 3611 934 
Q 4013 1447 4013 2328 
Q 4013 3213 3611 3725 
Q 3209 4238 2522 4238 
z
M 3406 84 
L 4238 -825 
L 3475 -825 
L 2784 -78 
Q 2681 -84 2626 -87 
Q 2572 -91 2522 -91 
Q 1538 -91 948 567 
Q 359 1225 359 2328 
Q 359 3434 948 4092 
Q 1538 4750 2522 4750 
Q 3503 4750 4090 4092 
Q 4678 3434 4678 2328 
Q 4678 1516 4351 937 
Q 4025 359 3406 84 
z
" transform="scale(0.015625)"/>
     <path id="DejaVuSans-66" d="M 2375 4863 
L 2375 4384 
L 1825 4384 
Q 1516 4384 1395 4259 
Q 1275 4134 1275 3809 
L 1275 3500 
L 2222 3500 
L 2222 3053 
L 1275 3053 
L 1275 0 
L 697 0 
L 697 3053 
L 147 3053 
L 147 3500 
L 697 3500 
L 697 3744 
Q 697 4328 969 4595 
Q 1241 4863 1831 4863 
L 2375 4863 
z
" transform="scale(0.015625)"/>
     <path id="DejaVuSans-76" d="M 191 3500 
L 800 3500 
L 1894 563 
L 2988 3500 
L 3597 3500 
L 2284 0 
L 1503 0 
L 191 3500 
z
" transform="scale(0.015625)"/>
     <path id="DejaVuSans-28" d="M 1984 4856 
Q 1566 4138 1362 3434 
Q 1159 2731 1159 2009 
Q 1159 1288 1364 580 
Q 1569 -128 1984 -844 
L 1484 -844 
Q 1016 -109 783 600 
Q 550 1309 550 2009 
Q 550 2706 781 3412 
Q 1013 4119 1484 4856 
L 1984 4856 
z
" transform="scale(0.015625)"/>
     <path id="DejaVuSans-29" d="M 513 4856 
L 1013 4856 
Q 1481 4119 1714 3412 
Q 1947 2706 1947 2009 
Q 1947 1309 1714 600 
Q 1481 -109 1013 -844 
L 513 -844 
Q 928 -128 1133 580 
Q 1338 1288 1338 2009 
Q 1338 2731 1133 3434 
Q 928 4138 513 4856 
z
" transform="scale(0.015625)"/>
    </defs>
    <use xlink:href="#DejaVuSans-51"/>
    <use xlink:href="#DejaVuSans-33" transform="translate(78.710938 0)"/>
    <use xlink:href="#DejaVuSans-20" transform="translate(142.333984 0)"/>
    <use xlink:href="#DejaVuSans-2014" transform="translate(174.121094 0)"/>
    <use xlink:href="#DejaVuSans-20" transform="translate(274.121094 0)"/>
    <use xlink:href="#DejaVuSans-43" transform="translate(305.908203 0)"/>
    <use xlink:href="#DejaVuSans-6f" transform="translate(375.732422 0)"/>
    <use xlink:href="#DejaVuSans-73" transform="translate(436.914062 0)"/>
    <use xlink:href="#DejaVuSans-74" transform="translate(489.013672 0)"/>
    <use xlink:href="#DejaVuSans-20" transform="translate(528.222656 0)"/>
    <use xlink:href="#DejaVuSans-66" transform="translate(560.009766 0)"/>
    <use xlink:href="#DejaVuSans-75" transform="translate(595.214844 0)"/>
    <use xlink:href="#DejaVuSans-6e" transform="translate(658.59375 0)"/>
    <use xlink:href="#DejaVuSans-63" transform="translate(721.972656 0)"/>
    <use xlink:href="#DejaVuSans-74" transform="translate(776.953125 0)"/>
    <use xlink:href="#DejaVuSans-69" transform="translate(816.162109 0)"/>
    <use xlink:href="#DejaVuSans-6f" transform="translate(843.945312 0)"/>
    <use xlink:href="#DejaVuSans-6e" transform="translate(905.126953 0)"/>
    <use xlink:href="#DejaVuSans-20" transform="translate(968.505859 0)"/>
    <use xlink:href="#DejaVuSans-65" transform="translate(1000.292969 0)"/>
    <use xlink:href="#DejaVuSans-76" transform="translate(1061.816406 0)"/>
    <use xlink:href="#DejaVuSans-6f" transform="translate(1120.996094 0)"/>
    <use xlink:href="#DejaVuSans-6c" transform="translate(1182.177734 0)"/>
    <use xlink:href="#DejaVuSans-75" transform="translate(1209.960938 0)"/>
    <use xlink:href="#DejaVuSans-74" transform="translate(1273.339844 0)"/>
    <use xlink:href="#DejaVuSans-69" transform="translate(1312.548828 0)"/>
    <use xlink:href="#DejaVuSans-6f" transform="translate(1340.332031 0)"/>
    <use xlink:href="#DejaVuSans-6e" transform="translate(1401.513672 0)"/>
    <use xlink:href="#DejaVuSans-20" transform="translate(1464.892578 0)"/>
    <use xlink:href="#DejaVuSans-28" transform="translate(1496.679688 0)"/>
    <use xlink:href="#DejaVuSans-52" transform="translate(1535.693359 0)"/>
    <use xlink:href="#DejaVuSans-65" transform="translate(1600.675781 0)"/>
    <use xlink:href="#DejaVuSans-64" transform="translate(1662.199219 0)"/>
    <use xlink:href="#DejaVuSans-20" transform="translate(1725.675781 0)"/>
    <use xlink:href="#DejaVuSans-63" transform="translate(1757.462891 0)"/>
    <use xlink:href="#DejaVuSans-68" transform="translate(1812.443359 0)"/>
    <use xlink:href="#DejaVuSans-61" transform="translate(1875.822266 0)"/>
    <use xlink:href="#DejaVuSans-6e" transform="translate(1937.101562 0)"/>
    <use xlink:href="#DejaVuSans-6e" transform="translate(2000.480469 0)"/>
    <use xlink:href="#DejaVuSans-65" transform="translate(2063.859375 0)"/>
    <use xlink:href="#DejaVuSans-6c" transform="translate(2125.382812 0)"/>
    <use xlink:href="#DejaVuSans-29" transform="translate(2153.166016 0)"/>
   </g>
  </g>
 </g>
 <defs>
  <clipPath id="p501b0f05ce">
   <rect x="34.240625" y="51.36" width="460.33" height="266.68"/>
  </clipPath>
  <clipPath id="pdd9b9f1f7b">
   <rect x="532.840625" y="51.36" width="460.33" height="266.68"/>
  </clipPath>
 </defs>
</svg>
